<svg width="492" height="492" viewBox="0 0 492 492" fill="none" xmlns="http://www.w3.org/2000/svg">
<path fill-rule="evenodd" clip-rule="evenodd" d="M492 246C492 381.862 381.862 492 246 492C110.138 492 0 381.862 0 246C0 110.138 110.138 0 246 0C381.862 0 492 110.138 492 246ZM153.763 330.565C160.13 325.265 169.588 326.13 174.888 332.497C185.581 345.343 205.721 360.801 230.429 365.237C254.1 369.487 284.189 364.049 317.125 331.435C323.012 325.606 332.509 325.653 338.338 331.539C344.167 337.426 344.121 346.923 338.234 352.752C299.111 391.493 259.414 400.921 225.127 394.765C191.877 388.795 165.886 368.575 151.831 351.69C146.531 345.323 147.396 335.865 153.763 330.565ZM169.125 231.586C187.7 231.586 202.758 216.528 202.758 197.953C202.758 179.378 187.7 164.32 169.125 164.32C150.55 164.32 135.492 179.378 135.492 197.953C135.492 216.528 150.55 231.586 169.125 231.586ZM356.508 197.953C356.508 216.528 341.45 231.586 322.875 231.586C304.3 231.586 289.242 216.528 289.242 197.953C289.242 179.378 304.3 164.32 322.875 164.32C341.45 164.32 356.508 179.378 356.508 197.953ZM246 461C364.741 461 461 364.741 461 246C461 127.259 364.741 31 246 31C127.259 31 31 127.259 31 246C31 364.741 127.259 461 246 461Z" fill="#7F5AF0"/>
</svg>
